<?xml version="1.0" encoding="UTF-8"?>
<svg id="Layer_2" data-name="Layer 2" xmlns="http://www.w3.org/2000/svg" viewBox="0 0 180.02 35.2">
  <defs>
    <style>
      .cls-1 {
        fill: #ffce00;
      }

      .cls-2 {
        fill: #fff;
      }
    </style>
  </defs>
  <g id="Layer_1-2" data-name="Layer 1">
    <g>
      <g>
        <g>
          <path class="cls-1" d="M20.39,8.58l3.3.45c.43.06.77.4.83.83l.45,3.3c.04.26.42.26.45,0l.45-3.3c.06-.43.4-.77.83-.83l3.3-.45c.26-.04.26-.42,0-.45l-3.3-.45c-.43-.06-.77-.4-.83-.83l-.45-3.3c-.04-.26-.42-.26-.45,0l-.45,3.3c-.06.43-.4.77-.83.83l-3.3.45c-.26.04-.26.42,0,.45Z"/>
          <path class="cls-1" d="M33.45,2.51l-1.66-.22c-.24-.03-.43-.22-.46-.46l-.22-1.66c-.03-.22-.35-.22-.38,0l-.22,1.66c-.03.24-.22.43-.46.46l-1.66.22c-.22.03-.22.35,0,.38l1.66.22c.24.03.43.22.46.46l.22,1.66c.03.22.35.22.38,0l.22-1.66c.03-.24.22-.43.46-.46l1.66-.22c.22-.03.22-.35,0-.38Z"/>
        </g>
        <path class="cls-1" d="M31.65,25.99c.34.76-.26,1.48-1.11,2.11-.05.04-.1.07-.15.11-.86.6-1.91,1.1-2.52,1.44-.3.16-.71.33-1,.57-.01,0-.02.02-.03.02-.13.12-.24.25-.3.4-.17.93,1.43,1.09,1.69,1.91.21.5-.07,1.17.06,1.79.02.27.15.56.28.85H3.3c.15-.34.3-.68.31-1.01.07-.6-.2-1.23.07-1.7.32-.59,1.04-.81,1.51-1.26.93-.9-1.08-1.43-1.65-1.8-1.21-.64-2.51-1.29-3.28-2.39-.68-1.07.78-1.75,1.08-2.67.32-.83-.09-1.86-.58-2.7-.31-.58-.86-1.24-.75-1.91.45-.96,2.24,0,2.98.17.58.17,1.11.22,1.63.02.47-.18.95-.52,1.48-.45,1.48.06,2.88,3.6,4.26,2.78.49-.61.21-1.58.08-2.3-.36-1.65-1.15-4.06-.62-5.13.32-.6,1.17-.7,1.77-.94,2.67-.93,2.97-5.18,4.29-5.38.03,0,.07,0,.1.02.49.11.76.76.97,1.18.59,1.28,1.16,2.62,2.19,3.57.61.58,1.48.72,2.22,1.04,1.48.67.57,2.93.28,4.49-.03.17-.08.39-.14.63-.02.11-.05.22-.08.33-.24.99-.47,2.22.16,2.61.67.26,1.4-.56,1.83-1.04.61-.65,1.22-1.51,2.17-1.66.81-.1,1.64.54,2.49.41.9-.09,1.71-.56,2.6-.69,2.69-.32-.21,2.64-.25,3.85-.29,1.22.62,1.92,1.2,2.71l.02.03Z"/>
      </g>
      <g>
        <path class="cls-2" d="M57.29,1.31v14.55h-2.92v-6.19h-6.23v6.19h-2.92V1.31h2.92v5.98h6.23V1.31h2.92Z"/>
        <path class="cls-2" d="M63.04,1.31v9c0,.99.26,1.74.77,2.26.51.52,1.24.78,2.17.78s1.67-.26,2.19-.78c.51-.52.77-1.27.77-2.26V1.31h2.94v8.98c0,1.24-.27,2.28-.8,3.14-.54.85-1.25,1.5-2.15,1.93-.9.43-1.89.65-2.99.65s-2.07-.22-2.95-.65c-.88-.43-1.58-1.07-2.09-1.93-.51-.85-.77-1.9-.77-3.14V1.31h2.92Z"/>
        <path class="cls-2" d="M87.14,15.86h-2.92l-6.61-9.98v9.98h-2.92V1.29h2.92l6.61,10V1.29h2.92v14.57Z"/>
        <path class="cls-2" d="M98.93,13.09h-5.79l-.96,2.77h-3.06l5.23-14.57h3.4l5.23,14.57h-3.08l-.96-2.77ZM98.14,10.75l-2.1-6.09-2.1,6.09h4.21Z"/>
        <path class="cls-2" d="M112.44,15.86l-3.21-5.67h-1.38v5.67h-2.92V1.31h5.46c1.13,0,2.08.2,2.88.59s1.39.93,1.78,1.61.59,1.43.59,2.26c0,.96-.28,1.82-.83,2.59s-1.38,1.3-2.48,1.59l3.48,5.9h-3.38ZM107.85,8h2.44c.79,0,1.38-.19,1.77-.57s.58-.91.58-1.59-.19-1.18-.58-1.55-.98-.55-1.77-.55h-2.44v4.27Z"/>
        <path class="cls-2" d="M134.15,1.31v14.55h-2.92V6.4l-3.9,9.46h-2.21l-3.92-9.46v9.46h-2.92V1.31h3.31l4.63,10.82,4.63-10.82h3.29Z"/>
        <path class="cls-2" d="M145.95,13.09h-5.79l-.96,2.77h-3.06l5.23-14.57h3.4l5.23,14.57h-3.08l-.96-2.77ZM145.16,10.75l-2.1-6.09-2.1,6.09h4.21Z"/>
        <path class="cls-2" d="M164.39,15.86h-2.92l-6.61-9.98v9.98h-2.92V1.29h2.92l6.61,10V1.29h2.92v14.57Z"/>
        <path class="cls-2" d="M176.39,2.21c1.16.6,2.06,1.45,2.69,2.55.63,1.1.95,2.39.95,3.84s-.32,2.73-.95,3.82c-.63,1.09-1.53,1.93-2.69,2.53-1.16.6-2.5.9-4.03.9h-5.09V1.31h5.09c1.53,0,2.87.3,4.03.9ZM175.79,12.13c.83-.83,1.25-2.01,1.25-3.52s-.42-2.7-1.25-3.55c-.83-.85-2.01-1.28-3.54-1.28h-2.06v9.61h2.06c1.53,0,2.71-.42,3.54-1.25Z"/>
        <path class="cls-2" d="M53.44,34.64l-5.29-6.48v6.48h-2.92v-14.55h2.92v6.52l5.29-6.52h3.52l-6,7.21,6.17,7.34h-3.69Z"/>
        <path class="cls-2" d="M67.96,31.87h-5.79l-.96,2.77h-3.06l5.23-14.57h3.4l5.23,14.57h-3.08l-.96-2.77ZM67.17,29.53l-2.1-6.09-2.1,6.09h4.21Z"/>
        <path class="cls-2" d="M76.25,34.26c-.81-.35-1.46-.85-1.93-1.5-.47-.65-.72-1.42-.73-2.31h3.13c.04.6.25,1.07.64,1.42.38.35.91.52,1.57.52s1.22-.16,1.61-.49c.39-.33.58-.75.58-1.28,0-.43-.13-.78-.4-1.06-.26-.28-.59-.5-.99-.66s-.94-.34-1.64-.53c-.95-.28-1.71-.55-2.3-.82-.59-.27-1.1-.68-1.52-1.23-.42-.55-.64-1.28-.64-2.2,0-.86.22-1.61.65-2.25.43-.64,1.04-1.13,1.81-1.47.78-.34,1.67-.51,2.67-.51,1.5,0,2.72.36,3.66,1.09s1.46,1.75,1.55,3.05h-3.21c-.03-.5-.24-.91-.64-1.24-.4-.33-.92-.49-1.57-.49-.57,0-1.02.15-1.36.44-.34.29-.51.72-.51,1.27,0,.39.13.71.39.97.26.26.58.47.96.63s.92.34,1.62.55c.94.28,1.72.56,2.31.83.6.28,1.11.7,1.54,1.25.43.56.65,1.29.65,2.19,0,.78-.2,1.5-.6,2.17-.4.67-.99,1.2-1.77,1.59s-1.7.59-2.77.59c-1.01,0-1.93-.17-2.74-.52Z"/>
        <path class="cls-2" d="M98.72,20.09v14.55h-2.92v-6.19h-6.23v6.19h-2.92v-14.55h2.92v5.98h6.23v-5.98h2.92Z"/>
        <path class="cls-2" d="M117.46,20.09v14.55h-2.92v-9.46l-3.9,9.46h-2.21l-3.92-9.46v9.46h-2.92v-14.55h3.31l4.63,10.82,4.63-10.82h3.29Z"/>
        <path class="cls-2" d="M123.25,20.09v14.55h-2.92v-14.55h2.92Z"/>
        <path class="cls-2" d="M133.63,34.64l-3.21-5.67h-1.38v5.67h-2.92v-14.55h5.46c1.13,0,2.08.2,2.88.59s1.39.93,1.78,1.61.59,1.43.59,2.26c0,.96-.28,1.82-.83,2.59s-1.38,1.3-2.48,1.59l3.48,5.9h-3.38ZM129.05,26.78h2.44c.79,0,1.38-.19,1.77-.57s.58-.91.58-1.59-.19-1.18-.58-1.55-.98-.55-1.77-.55h-2.44v4.27Z"/>
      </g>
    </g>
  </g>
</svg>